<svg width="1440" height="100" viewBox="0 0 1440 100" fill="none" xmlns="http://www.w3.org/2000/svg">
<g clip-path="url(#clip0_1_930)">
<path d="M-1191.18 -91L-1117.12 -73.0775C-1043.05 -55.825 -894.918 -18.975 -746.786 25.0775C-598.653 69.8 -450.52 123.4 -302.388 123.4C-154.255 123.4 -6.12244 69.8 142.01 51.8775C290.143 34.625 438.275 51.375 586.408 69.8C734.541 88.225 882.673 104.975 1030.81 78.6775C1178.94 51.375 1327.07 -18.975 1475.2 7.3225C1623.34 34.625 1771.47 158.575 1919.6 185.878C2067.73 212.175 2215.87 141.825 2289.93 105.477L2364 69.8V445H2289.93C2215.87 445 2067.73 445 1919.6 445C1771.47 445 1623.34 445 1475.2 445C1327.07 445 1178.94 445 1030.81 445C882.673 445 734.541 445 586.408 445C438.275 445 290.143 445 142.01 445C-6.12244 445 -154.255 445 -302.388 445C-450.52 445 -598.653 445 -746.786 445C-894.918 445 -1043.05 445 -1117.12 445H-1191.18V-91Z" fill="#D3D4ED"/>
<path d="M1468.72 99.627H-585V290.672H1468.72V99.627Z" fill="#D3D4ED"/>
<path d="M1403 99.2539H-36V177.985H1403V99.2539Z" fill="#D3D4ED"/>
</g>
<defs>
<clipPath id="clip0_1_930">
<rect width="1440" height="100" fill="white"/>
</clipPath>
</defs>
</svg>
