<svg width="69" height="74" viewBox="0 0 69 74" fill="none" xmlns="http://www.w3.org/2000/svg">
<path d="M18.6388 13.9153C23.5652 9.43194 30.014 5.87402 36.3091 6.19312C42.6135 6.47773 48.7642 10.6394 54.0593 15.7916C59.3545 20.9438 63.716 27.1026 63.4922 33.0308C63.234 38.9498 58.3123 44.6542 53.9027 50.2371C49.4587 55.8108 45.5174 61.2974 39.9334 63.8302C34.3586 66.3286 27.1067 65.864 20.5931 63.1946C14.0358 60.5504 8.2168 55.7014 6.03084 49.682C3.85412 43.628 5.31042 36.4036 7.77038 30.1135C10.2396 23.7889 13.7124 18.3986 18.6388 13.9153Z" fill="#FFDBB4"/>
<path fill-rule="evenodd" clip-rule="evenodd" d="M33.6803 15.2438C38.9439 15.2438 44.3882 19.3589 46.3176 21.9848C48.5486 25.0212 50.3085 39.5973 49.4829 44.5433C48.6573 49.4893 44.5563 54.8801 37.437 54.8801C30.3178 54.8801 25.9852 53.9957 25.8115 52.711C25.6957 51.8546 24.1304 49.0428 21.1158 44.2756C18.0326 43.401 16.4849 41.919 16.4728 39.8297C16.4608 37.7404 17.287 36.3156 18.9512 35.5555C18.3578 27.3102 18.8083 22.1142 20.3028 19.9675C22.5445 16.7475 28.4167 15.2438 33.6803 15.2438Z" fill="#EDB98A"/>
<path fill-rule="evenodd" clip-rule="evenodd" d="M31.0004 14.0041L31.0943 14.0045C36.9181 14.0425 42.8413 16.7454 46.3061 21.4671L46.4103 21.6108C46.416 21.6183 46.5197 21.774 46.5442 21.8183C46.6878 22.0783 46.857 22.3215 46.9867 22.5858C47.0963 22.8102 47.1692 23.0609 47.2497 23.2999L47.2741 23.3712C47.4809 23.9678 47.6551 24.5699 47.8091 25.1823C48.1075 26.3744 48.3402 27.5852 48.5665 28.7932C49.3748 33.1189 49.9034 37.5063 50.1698 41.8994L50.2223 42.7828C50.2761 43.699 50.3167 44.6191 50.2147 45.5323C50.0968 46.5953 49.7938 47.593 49.3349 48.556C48.9121 49.4442 48.3671 50.267 47.7433 51.0234C47.4096 51.4283 47.0554 51.8219 46.6197 52.1182C46.273 52.3539 45.8678 52.5091 45.4776 52.6587C44.8427 53.2983 44.0278 53.7816 43.2315 54.1678C41.9189 54.8026 40.4959 55.1533 39.0563 55.329C37.5842 55.5075 36.0973 55.4646 34.6373 55.2094C33.2421 54.9663 31.7468 54.3445 30.8875 53.1599C30.8134 53.058 30.9514 52.9617 31.0423 53.0037C33.536 54.1678 36.3382 54.4717 39.0563 54.1042C40.3244 53.9331 41.5721 53.5797 42.73 53.0308C43.7071 52.568 44.5311 51.8948 45.4081 51.2852C45.5787 51.0562 45.751 50.8308 45.9477 50.6214L46.2544 50.297C46.4837 50.0533 46.7088 49.8063 46.9135 49.5396C47.5458 48.7178 48.0695 47.7856 48.4154 46.8048C49.088 44.8956 48.9061 42.8232 48.7872 40.8335L48.7769 40.6582C48.6545 38.5302 48.4551 36.4096 48.179 34.2965C47.9026 32.1807 47.5513 30.0732 47.1361 27.9807C46.9312 26.9494 46.7012 25.9247 46.4983 24.8934C46.3935 24.3614 46.3203 23.8219 46.2406 23.2843C46.1923 22.957 46.1932 22.6419 46.1923 22.3222C46.1831 22.3371 46.1719 22.3512 46.1608 22.3652C46.1942 22.4447 46.1711 22.5466 46.0895 22.5933C45.7808 22.771 45.4248 22.7111 45.0772 22.7121C44.7082 22.7139 44.3392 22.7149 43.9703 22.7158C43.586 22.7172 43.2018 22.7172 42.8175 22.7166L41.6648 22.7139L37.0539 22.6999C34.0342 22.6908 30.9633 22.8119 27.9534 22.5248L27.7236 22.5019C27.4871 22.4744 24.8178 22.1452 24.096 22.0602L24.074 22.0576C22.7548 21.9042 21.4543 21.677 20.1723 21.3367C20.5912 21.5059 20.9945 21.7341 21.4097 21.907C21.9456 22.1296 22.4953 22.324 23.0451 22.5101C24.1732 22.8925 25.3032 23.2637 26.4267 23.6583C26.7488 23.7712 27.4808 26.5545 27.6653 26.9948L27.6707 27.0074C27.7644 27.2196 27.8933 27.4524 27.8218 27.6937C27.6643 28.2266 26.829 28.6212 26.4147 28.9222L25.9887 29.2323L25.4316 29.6388C25.2031 29.8039 24.9922 29.9302 24.6932 29.8357C24.6923 29.8348 24.6914 29.8348 24.6905 29.8348C24.9464 31.0325 25.0706 34.9062 25.1086 35.5859C25.1419 36.1777 25.3143 36.936 25.0399 37.4755C24.975 37.6036 24.8064 37.7046 24.6626 37.6943C24.0359 37.6466 23.4094 37.5998 22.7827 37.5531C22.6148 37.54 22.4619 37.4437 22.4155 37.2717L22.4137 37.2623C22.3934 37.2679 22.3702 37.2642 22.3507 37.2436C22.3164 37.209 22.2812 37.1754 22.245 37.1426C21.42 36.4003 20.1296 36.217 19.1117 36.6032C18.5778 36.8051 17.9706 37.1454 17.5942 37.5868C17.1761 38.0767 17.0863 38.7611 17.0853 39.3866C17.0834 40.5927 17.5155 41.8138 18.397 42.6506C19.207 43.4188 20.2521 43.6423 21.3036 43.8622L21.4163 43.8858C21.6563 43.9362 21.7324 44.2971 21.5517 44.4486C22.0328 44.9236 22.4481 45.4902 22.8532 46.0128C23.3911 46.7062 23.9055 47.4271 24.406 48.1495L24.6475 48.499C25.5085 49.7382 26.7546 51.4452 26.2126 52.9944C26.1403 53.2029 25.8381 53.2777 25.7203 53.0589C25.3338 52.339 25.1178 51.5461 24.7507 50.8177C24.3902 50.1034 23.9415 49.4414 23.4964 48.7795L23.2397 48.3958C22.8124 47.7552 22.389 47.1076 21.9965 46.4476L21.7233 45.9907C21.4665 45.5592 21.2124 45.1133 21.0232 44.6496C19.7578 44.9572 18.3821 44.2728 17.4931 43.3612C16.3753 42.2131 15.8497 40.5217 15.9942 38.9313C16.0703 38.0991 16.3141 37.2941 16.9184 36.6957C16.9796 36.6359 17.0436 36.5788 17.1095 36.5218C17.0863 36.5097 17.0668 36.491 17.0575 36.4685C16.6524 35.498 16.5661 34.3414 16.5318 33.2961C16.4958 32.2153 16.519 31.1316 16.6004 30.0526C16.7498 28.0742 17.1038 26.1061 17.6657 24.2043C18.4971 21.3937 19.9257 18.6421 22.208 16.7562C24.6417 14.7448 27.9023 13.9989 31.0004 14.0041ZM18.8856 38.5872C19.2293 38.4299 19.7655 38.7101 20.0715 38.8887L20.0916 38.9004C20.9954 39.4305 21.6388 40.3337 21.9363 41.3342C22.1273 41.9793 21.0547 42.2364 20.9639 41.6044C20.8898 41.0892 20.7192 40.6068 20.4384 40.1757C20.3715 40.1982 20.3066 40.2272 20.2483 40.2646C20.0249 40.4104 19.895 40.661 19.5846 40.6236C19.3546 40.5965 19.1191 40.4357 19.1349 40.1701C19.16 39.7316 19.5103 39.5568 19.8859 39.5343C19.8323 39.4859 19.7782 39.4381 19.7228 39.3919L19.6622 39.3428C19.5935 39.2928 18.8589 38.7817 18.8378 38.9132L18.8373 38.921C18.8383 38.9733 18.7687 39.0033 18.7335 38.964C18.5917 38.8107 18.7234 38.662 18.8856 38.5872Z" fill="black"/>
<path fill-rule="evenodd" clip-rule="evenodd" d="M37.732 43.9509C38.2517 43.0906 39.3593 45.1982 39.477 45.5606C39.5813 45.8816 39.6501 46.2105 39.6851 46.5432C40.0879 46.6341 40.5063 46.6342 40.9191 46.5546C41.5327 46.4361 41.9077 46.1041 42.441 45.8191C42.8093 45.6221 43.2735 45.8531 43.465 46.1797C43.6903 46.5643 43.5468 46.9634 43.2505 47.25C42.6885 47.7936 41.5829 47.9185 40.8494 47.7741C40.4291 47.6914 40.044 47.5328 39.7038 47.3023C39.7016 47.3453 39.7001 47.3883 39.6967 47.4313L39.6902 47.5058C39.6338 48.1087 39.4692 48.8668 39.0039 49.259C38.2409 49.9025 37.2991 48.665 38.0406 48.0222L38.0636 48.0029C38.5244 47.6281 38.625 46.6226 38.6002 46.0687C38.5839 45.7072 38.5185 45.3411 38.4051 44.9968L38.3817 44.9282C38.3476 44.8309 37.9754 43.9084 37.8409 44.0258L37.8345 44.0325C37.779 44.0991 37.6894 44.0215 37.732 43.9509ZM41.8812 39.096C42.5827 39.5252 43.6515 40.5259 42.8969 41.5899C42.0086 42.528 40.7296 41.4524 40.0994 40.9659C39.515 40.5889 38.8584 41.5585 39.4006 41.9987C43.9547 45.3923 45.8029 39.2082 42.236 38.5914C41.8432 38.5235 41.6974 38.9633 41.8812 39.096ZM34.3904 35.1292C35.076 35.0068 35.7783 35.1784 36.3456 35.5821L36.3886 35.6132C36.9351 36.0155 37.5467 36.7219 37.233 37.4154C37.1072 37.6938 36.7302 37.7375 36.491 37.6113C36.0927 37.4011 36.0205 36.884 35.6652 36.5978C35.3738 36.3632 34.9814 36.2209 34.6061 36.2552C33.7244 36.3358 33.1821 37.211 32.9082 37.9653C32.8732 38.0618 32.7325 38.0992 32.6775 37.9957C32.0317 36.7809 33.1747 35.3463 34.3904 35.1292ZM45.3718 34.6707C46.685 34.5618 48.2222 35.9321 47.8764 37.3273C47.7106 37.9968 46.724 37.9776 46.5486 37.3273C46.452 36.9695 46.4617 36.6529 46.2058 36.3558C45.9945 36.1104 45.6944 35.9679 45.3718 35.9898C45.0161 36.014 44.6881 36.1928 44.4389 36.4442C44.2138 36.6712 44.0792 37.0034 43.846 37.2044C43.7886 37.2537 43.7118 37.2569 43.6551 37.2044C43.2538 36.832 43.4947 36.0567 43.7491 35.6679C44.1133 35.1116 44.7062 34.726 45.3718 34.6707ZM31.8895 32.6547C32.732 31.9041 34.2629 31.1792 35.3989 31.5486C36.052 31.761 36.3368 32.8202 35.6076 33.156C34.7633 33.5447 33.7898 33.3865 32.9304 33.7895C32.5695 33.9588 32.2301 34.1704 31.9788 34.4807C31.7808 34.7253 31.5794 35.0472 31.2931 35.1882C31.2179 35.2253 31.116 35.2262 31.0557 35.1574C30.4281 34.4429 31.3415 33.1429 31.8895 32.6547ZM43.9237 31.5114C44.4444 31.3643 45.022 31.3673 45.551 31.4597C46.0797 31.552 46.6166 31.7726 47.0483 32.0943L47.0984 32.132C47.5697 32.4894 48.1321 33.0095 48.1019 33.6427C48.0767 34.1714 47.5241 34.529 47.047 34.2519C46.658 34.0259 46.475 33.5732 46.1457 33.2718C45.874 33.023 45.5548 32.8268 45.2142 32.6894C44.836 32.5367 44.457 32.4651 44.0511 32.4583C43.7385 32.4531 43.424 32.5563 43.1173 32.5893C43.1425 32.6415 42.9001 32.6172 42.7611 32.5709C42.6582 32.5268 42.6576 32.3958 42.6933 32.3108C42.8703 31.8898 43.5141 31.6269 43.9237 31.5114Z" fill="black"/>
<path fill-rule="evenodd" clip-rule="evenodd" d="M52.6686 31.9774C52.5922 31.9646 52.5156 31.9526 52.4391 31.9413C52.3793 31.9071 52.3092 31.8809 52.2276 31.865C52.0414 31.8175 51.8564 31.7854 51.6718 31.7681C49.0212 31.1677 42.8894 32.0202 42.6364 34.2967C41.7923 34.5802 41.062 34.3263 40.0837 34.3516C39.339 31.2189 26.4651 31.661 25.846 33.5497C25.8436 33.5491 25.8413 33.5485 25.8389 33.5477C25.244 33.3624 24.367 33.4071 23.686 33.3778C22.2321 33.3471 20.7765 33.4775 19.354 33.7862C16.6902 34.2122 13.0547 34.7111 14.9073 38.0591C14.9077 38.0596 14.908 38.0603 14.9084 38.0608L14.9087 38.0605C15.228 38.3899 15.7699 38.1247 15.79 37.6788C15.1671 36.0927 16.574 35.9022 17.6564 35.4464C20.3497 34.4725 23.0919 34.3375 25.8775 34.6388C26.087 34.8871 26.405 35.1037 26.7411 35.217C28.6036 35.5281 27.6221 36.9187 28.7993 37.1209C28.5831 41.968 34.4301 44.6139 37.8179 41.4275C39.1706 40.0965 39.493 38.1247 39.8066 36.3474C39.9725 36.3099 40.0779 36.2186 40.1395 36.0978C40.5383 35.6971 40.7888 35.327 41.5774 35.217C42.366 35.107 42.9731 35.3278 43.0552 35.3954C43.0759 35.4374 43.0982 35.4794 43.124 35.5215C43.16 35.5842 43.2091 35.6343 43.2648 35.6736C42.4861 40.5004 46.2091 43.5529 49.9676 41.0495C51.6007 39.5033 51.9458 37.1361 52.014 35.0232C52.2354 34.8888 52.3755 34.6282 52.2989 34.3006C52.1933 33.849 52.4409 33.458 52.8354 33.2616C53.3479 33.0067 53.2572 32.0755 52.6686 31.9774ZM36.5188 34.2673C36.0523 34.164 35.853 34.888 36.321 34.9915C36.6525 35.0649 36.9333 35.2331 37.1231 35.518L37.1431 35.549C37.3977 35.9569 38.0416 35.5804 37.7852 35.1699C37.4967 34.708 37.0484 34.3845 36.5188 34.2673ZM50.1826 33.8185C50.0181 33.7019 49.7692 33.7884 49.6738 33.9532C49.5687 34.1346 49.6376 34.3366 49.7916 34.4553L49.8073 34.4669C49.9486 34.5671 50.0862 34.7468 50.1034 34.9309L50.105 34.9539C50.1235 35.4356 50.8673 35.4381 50.8487 34.9539C50.8306 34.4802 50.5581 34.0845 50.1826 33.8185Z" fill="black"/>
</svg>
